<svg xmlns="http://www.w3.org/2000/svg" version="1.1" xmlns:xlink="http://www.w3.org/1999/xlink" width="120" height="120" x="0" y="0" viewBox="0 0 120 120" style="enable-background:new 0 0 512 512" xml:space="preserve" class=""><g><path d="M105 62.5c0 -5.85 -2.129 -12.722 -4.161 -17.962C114.243 41.085 120 17.385 120 7.5a2.498 2.498 0 0 0 -2.5 -2.5c-14.095 0 -33.09 9.16 -36.805 19.117 -5.295 -2.025 -12.683 -4.117 -20.695 -4.117s-15.401 2.092 -20.696 4.117c-3.715 -9.957 -22.71 -19.117 -36.805 -19.117A2.498 2.498 0 0 0 0 7.5c0 9.885 5.757 33.585 19.161 37.038C17.129 49.778 15 56.649 15 62.5c0 4.387 -0.898 5.957 -2.041 7.944 -1.387 2.419 -2.959 5.166 -2.959 12.056 0 13.284 17.808 32.5 50 32.5S110 95.784 110 82.5c0 -6.89 -1.572 -9.636 -2.959 -12.056 -1.143 -1.987 -2.041 -3.557 -2.041 -7.944z" style="" fill="#303c42" data-original="#303c42"/><path d="M93.853 35.278c1.23 -0.625 2.739 -0.154 3.369 1.074 0.09 0.174 0.757 1.486 1.656 3.488 2.346 -0.397 4.438 -1.803 6.29 -3.815 -0.345 -5.18 -3.343 -16.794 -6.625 -21.262 -6.798 3.271 -12.096 7.65 -13.274 11.288 2.066 0.969 3.335 1.696 3.496 1.79 1.191 0.698 1.587 2.227 0.894 3.418 -0.693 1.191 -2.222 1.601 -3.418 0.898 -0.122 -0.071 -12.441 -7.158 -26.24 -7.158 -13.848 0 -26.113 7.085 -26.235 7.158a2.512 2.512 0 0 1 -1.265 0.342c-0.855 0 -1.694 -0.442 -2.158 -1.238 -0.698 -1.191 -0.298 -2.722 0.894 -3.42 0.161 -0.094 1.43 -0.821 3.496 -1.79 -1.178 -3.638 -6.476 -8.018 -13.274 -11.288 -3.382 4.603 -6.362 16.458 -6.542 21.355 1.832 1.963 3.896 3.331 6.207 3.723 0.899 -2.002 1.566 -3.314 1.656 -3.488 0.635 -1.228 2.144 -1.704 3.369 -1.074 1.226 0.632 1.709 2.141 1.074 3.367 -0.073 0.142 -7.222 14.126 -7.222 23.855 0 5.718 -1.436 8.22 -2.7 10.43 -0.689 1.203 -1.349 2.387 -1.786 4.25C17.524 75.815 19.92 75 22.5 75c6.895 0 12.5 5.608 12.5 12.5 0 5.765 -3.943 10.583 -9.26 12.021 7.501 5.842 18.907 10.479 34.26 10.479s26.76 -4.637 34.26 -10.479c-5.318 -1.438 -9.26 -6.256 -9.26 -12.021C85 80.608 90.605 75 97.5 75c2.58 0 4.976 0.815 6.986 2.179 -0.437 -1.863 -1.097 -3.047 -1.786 -4.25 -1.265 -2.209 -2.7 -4.712 -2.7 -10.43 0 -9.749 -7.148 -23.713 -7.222 -23.853 -0.634 -1.228 -0.151 -2.737 1.075 -3.369z" style="" fill="#ffee58" data-original="#ffee58"/><path cx="160" cy="266.667" r="32" style="" fill="#303c42" data-original="#303c42" d="M45 62.5A7.5 7.5 0 0 1 37.5 70A7.5 7.5 0 0 1 30 62.5A7.5 7.5 0 0 1 45 62.5z"/><path cx="170.667" cy="256" r="10.667" style="" fill="#ffffff" data-original="#ffffff" d="M42.5 60A2.5 2.5 0 0 1 40 62.5A2.5 2.5 0 0 1 37.5 60A2.5 2.5 0 0 1 42.5 60z"/><path cx="352" cy="266.667" r="32" style="" fill="#303c42" data-original="#303c42" d="M90 62.5A7.5 7.5 0 0 1 82.5 70A7.5 7.5 0 0 1 75 62.5A7.5 7.5 0 0 1 90 62.5z"/><path cx="343.04" cy="256" r="10.667" style="" fill="#ffffff" data-original="#ffffff" d="M82.9 60A2.5 2.5 0 0 1 80.4 62.5A2.5 2.5 0 0 1 77.9 60A2.5 2.5 0 0 1 82.9 60z"/><path d="M72.944 78.574c-0.186 0.264 -1.436 1.067 -3.823 1.34 -2.324 0.266 -5.523 -0.059 -7.461 -1.782a2.49 2.49 0 0 0 -1.657 -0.633 2.491 2.491 0 0 0 1.764 -0.732l2.5 -2.5a2.506 2.506 0 0 0 0.542 -2.725 2.497 2.497 0 0 0 -2.31 -1.543h-5a2.497 2.497 0 0 0 -2.31 1.543 2.506 2.506 0 0 0 0.542 2.725l2.5 2.5a2.49 2.49 0 0 0 1.764 0.732 2.488 2.488 0 0 0 -1.657 0.633c-1.939 1.729 -5.142 2.051 -7.461 1.782 -2.388 -0.274 -3.638 -1.077 -3.823 -1.34 -0.791 -1.133 -2.349 -1.416 -3.481 -0.627 -1.133 0.786 -1.416 2.344 -0.63 3.479 1.688 2.431 5.3 3.175 7.014 3.403 -0.042 3.676 0.196 9.235 3.455 12.569 1.689 1.726 3.906 2.603 6.587 2.603 2.446 0 4.605 -0.93 6.245 -2.69 3.159 -3.397 3.739 -9.149 3.796 -12.481 1.714 -0.227 5.327 -0.971 7.015 -3.403 0.781 -1.133 0.498 -2.676 -0.63 -3.464 -1.118 -0.781 -2.686 -0.513 -3.482 0.613z" style="" fill="#303c42" data-original="#303c42"/><path d="M56.992 93.904c-1.914 -1.958 -2.064 -6.322 -2.032 -9.128 1.853 -0.284 3.585 -0.841 5.04 -1.699 1.447 0.855 3.197 1.329 5.037 1.614 -0.06 2.829 -0.557 7.171 -2.454 9.214 -1.567 1.673 -4.282 1.35 -5.591 0z" style="" fill="#e53935" data-original="#e53935"/><path d="M60 87.49c1.325 0.783 2.92 1.223 4.59 1.515 0.281 -1.514 0.42 -3.063 0.447 -4.315 -1.84 -0.285 -3.59 -0.759 -5.037 -1.614 -1.455 0.859 -3.187 1.416 -5.04 1.699 -0.014 1.259 0.033 2.83 0.235 4.358 1.761 -0.294 3.414 -0.823 4.805 -1.643z" style="opacity:0.1;enable-background:new ;" fill="#000000" opacity="1" data-original="#000000"/><path d="M99.397 94.671C94.203 96.125 90 92.246 90 87.5c0 -4.136 3.364 -7.5 7.5 -7.5 3.321 0 6.136 2.194 7.093 5.343 -0.706 2.892 -2.437 6.14 -5.197 9.328z" style="" fill="#e53935" data-original="#e53935"/><path d="M91.354 89.143c0 -4.136 3.364 -7.5 7.5 -7.5 1.909 0 3.598 0.782 4.916 1.996 -1.314 -2.188 -3.603 -3.64 -6.27 -3.64 -4.136 0 -7.5 3.364 -7.5 7.5 0 2.259 0.973 4.301 2.531 5.686 -0.727 -1.179 -1.177 -2.555 -1.177 -4.043z" style="opacity:0.2;enable-background:new ;" fill="#ffffff" data-original="#ffffff"/><path d="M20.602 94.669c-2.758 -3.187 -4.489 -6.434 -5.195 -9.326 0.957 -3.149 3.772 -5.343 7.093 -5.343 4.136 0 7.5 3.364 7.5 7.5 0 4.751 -4.24 8.614 -9.398 7.169z" style="" fill="#e53935" data-original="#e53935"/><path d="M22.916 82.292c3.295 0 6.069 2.15 7.073 5.11 -0.054 -4.089 -3.388 -7.401 -7.49 -7.401 -3.321 0 -6.136 2.194 -7.093 5.343 0.15 0.612 0.37 1.248 0.611 1.888 1.075 -2.915 3.732 -4.94 6.898 -4.94z" style="opacity:0.2;enable-background:new ;" fill="#ffffff" data-original="#ffffff"/><path id="a" x1="-36.545" x2="-29.604" y1="631.769" y2="624.828" gradientTransform="matrix(21.3333 0 0 -21.3333 996.333 13791.667)" gradientUnits="userSpaceOnUse" d=""><stop offset="0" style="stop-color:#000000;stop-opacity:0.1" stop-color="#000000;stop-opacity:0.1"/><stop offset="1" style="stop-color:#000000;stop-opacity:0" stop-color="#000000;stop-opacity:0"/></path><path d="m42.944 81.426 7.169 7.169c-0.115 -1.348 -0.168 -2.651 -0.155 -3.766 -1.714 -0.227 -5.326 -0.972 -7.014 -3.403zm42.056 6.074c0 -0.285 0.065 -0.551 0.084 -0.831l-7.96 -7.96h-0.002c0.5 0.816 0.511 1.878 -0.067 2.717 -1.688 2.431 -5.301 3.175 -7.015 3.403 -0.056 3.333 -0.637 9.084 -3.796 12.481 -1.641 1.76 -3.799 2.69 -6.245 2.69 -2.681 0 -4.897 -0.877 -6.587 -2.603l12.368 12.368c12.465 -0.998 21.954 -5.162 28.479 -10.245 -5.318 -1.438 -9.26 -6.256 -9.26 -12.021z" style="fill:url(#a);" fill=""/><path id="b" x1="-47.864" x2="-23.703" y1="642.606" y2="631.336" gradientTransform="matrix(21.3333 0 0 -21.3333 996.333 13791.667)" gradientUnits="userSpaceOnUse" d=""><stop offset="0" style="stop-color:#FFFFFF;stop-opacity:0.2" stop-color="#ffffff;stop-opacity:0.2"/><stop offset="1" style="stop-color:#FFFFFF;stop-opacity:0" stop-color="#ffffff;stop-opacity:0"/></path><path d="M105 62.5c0 -5.85 -2.129 -12.722 -4.161 -17.962C114.243 41.085 120 17.385 120 7.5a2.498 2.498 0 0 0 -2.5 -2.5c-14.095 0 -33.09 9.16 -36.805 19.117 -5.295 -2.025 -12.683 -4.117 -20.695 -4.117s-15.401 2.092 -20.696 4.117c-3.715 -9.957 -22.71 -19.117 -36.805 -19.117A2.498 2.498 0 0 0 0 7.5c0 9.885 5.757 33.585 19.161 37.038C17.129 49.778 15 56.649 15 62.5c0 4.387 -0.898 5.957 -2.041 7.944 -1.387 2.419 -2.959 5.166 -2.959 12.056 0 13.284 17.808 32.5 50 32.5S110 95.784 110 82.5c0 -6.89 -1.572 -9.636 -2.959 -12.056 -1.143 -1.987 -2.041 -3.557 -2.041 -7.944z" style="fill:url(#b);" fill=""/></g></svg>
